<?xml version="1.0" encoding="utf-8"?>
<!-- Generator: Adobe Illustrator 27.5.0, SVG Export Plug-In . SVG Version: 6.00 Build 0)  -->
<svg version="1.1" id="Layer_1" xmlns="http://www.w3.org/2000/svg" xmlns:xlink="http://www.w3.org/1999/xlink" x="0px" y="0px"
	 viewBox="0 0 2609 2000" style="enable-background:new 0 0 2609 2000;" xml:space="preserve">
<rect style="fill:#FFFFFF;" width="2609" height="2000"/>
<g>
	<path style="fill:#E2FAFA;" d="M2474.622,1613.965c-25.05-192.181,70.362-394.627,4.049-576.736
		c-21.06-57.834-57.157-108.747-86.577-162.81c-44.413-81.619-73.842-171.362-86.385-263.433
		c-8.205-60.233-9.284-121.565-22.952-180.798c-37.917-164.315-179.941-299.616-345.901-329.524
		c-133.751-24.103-271.676,15.911-393.28,76.597c-121.604,60.686-231.872,141.719-350.65,207.765
		c-126.408,70.288-262.352,123.401-402.928,157.425c-52.094,12.608-105.526,22.858-153.264,47.229
		c-118.555,60.523-178.48,193.994-221.069,320.107c-42.59,126.114-81.01,261.906-179.553,351.391
		c-26.415,23.986-56.518,43.911-81.005,69.862c-80.587,85.407-84.207,222.744-37.337,330.41
		c42.676,98.031,142.737,230.159,240.789,279.724c3.504,1.771,7.078,3.423,10.71,4.975h277.782
		c52.523-9.666,102.763-20.155,145.036-24.259c165.302-16.046,331.798-1.042,497.598,8.583
		c337.374,19.586,675.598,16.843,1013.528,14.093c49.45-0.402,102.821-2.093,141.96-32.319
		c41.722-32.222,56.212-89.531,54.111-142.204C2497.18,1717.367,2481.436,1666.238,2474.622,1613.965z"/>
	<path style="fill:#9CDEDC;" d="M2253.146,1305.822L2253.146,1305.822c-15.946,2.01-40.245,34.482-43.109,37.752
		c-1.614,1.843-3.282,3.751-5.01,5.813l10.575,13.096l-17.494-4.292c-29.324,39.849-41.508,91.53-32.664,140.318
		c1.145,6.317,2.534,12.12,3.877,17.731c2.13,8.9,4.143,17.308,3.823,23.047c-0.593,10.652-9.886,24.412-19.725,38.979
		c-14.065,20.826-31.568,46.744-33.999,79.856c-1.8,24.523,5.317,46.309,11.036,63.813c3.904,11.953,7.593,23.243,7.13,31.232
		c-0.511,8.769-6.424,20.361-12.688,32.633c-4.244,8.317-9.054,17.744-13.012,27.894c-15.911,40.79-15.347,87.351,1.55,127.746
		l77.796-32.54c-8.413-20.115-8.706-44.251-0.784-64.564c2.426-6.219,5.893-13.014,9.563-20.207
		c9.01-17.656,20.222-39.631,21.759-66.072c1.388-23.908-5.276-44.308-11.156-62.307c-3.949-12.086-7.678-23.5-7.094-31.456
		c0.786-10.705,10.013-24.366,19.781-38.831c12.639-18.715,27.998-41.472,32.734-69.839c-15.241,6.382-41.229,17.457-44.786,20.24
		c-3.796,2.97,29.297-24.231,46.244-38.152c-0.056-15.552-3.404-29.571-6.163-41.1c-1.125-4.696-2.187-9.134-2.914-13.144
		c-4.99-27.539,3.023-58.014,20.916-79.535c1.227-1.475,2.637-3.084,4.13-4.789c6.606-7.54,14.829-16.925,20.792-29.859
		c1.526-3.309,2.801-6.627,3.859-9.937C2307.314,1330.569,2283.123,1302.047,2253.146,1305.822z"/>
	<path style="fill:#74BDC1;" d="M2405.47,1435.568L2405.47,1435.568c-13.423-3.045-42.476,15.99-45.736,17.784
		c-2.028,1.116-4.126,2.271-6.351,3.569c-13.873,8.107-26.33,18.411-36.988,30.314l13.082,32.176l-20.825-22.836
		c-15.288,19.956-25.852,43.523-30.105,68.449c-0.926,5.419-1.504,10.495-2.063,15.404c-0.887,7.788-1.726,15.143-3.661,19.67
		c-3.591,8.4-15.093,16.759-27.271,25.608c-17.409,12.65-39.075,28.396-50.712,54.337c-8.617,19.214-9.258,38.829-9.772,54.591
		c-0.351,10.763-0.683,20.928-3.392,27.224c-2.974,6.909-11.123,14.511-19.752,22.558c-5.848,5.454-12.475,11.636-18.628,18.647
		c-24.731,28.182-37.889,65.824-36.098,103.277l72.13-3.448c-0.891-18.65,5.93-38.164,18.245-52.198
		c3.771-4.297,8.548-8.752,13.604-13.469c12.414-11.577,27.863-25.987,36.83-46.822c8.107-18.838,8.707-37.205,9.235-53.412
		c0.355-10.882,0.69-21.159,3.486-27.394c3.763-8.387,15.183-16.686,27.274-25.472c17.732-12.887,39.801-28.924,51.222-55.645
		c0.716-1.675,1.365-3.35,1.965-5.02h-31.555l35.381-13.519c1.657-7.664,2.488-14.939,3.217-21.337
		c0.469-4.109,0.91-7.991,1.498-11.432c4.033-23.625,19.393-45.813,40.087-57.904c1.418-0.828,3.024-1.712,4.724-2.647
		c7.522-4.138,16.885-9.288,25.466-17.956c2.195-2.216,4.191-4.516,6.011-6.869c0.646-0.835,1.229-1.69,1.784-2.555l-26.518-6.813
		l31.869-8.448C2434.861,1457.009,2423.959,1439.764,2405.47,1435.568z"/>
	<path style="fill:#8FD0D6;" d="M2440.83,1607.782L2440.83,1607.782c-9.627-4.381-34.451,5.423-37.186,6.265
		c-1.7,0.524-3.458,1.066-5.334,1.699c-33.079,11.142-60.422,37.198-73.142,69.704c-1.54,3.935-2.765,7.665-3.95,11.272
		c-1.879,5.722-3.654,11.127-5.815,14.231c-4.01,5.763-13.967,10.263-24.509,15.027c-15.07,6.812-33.824,15.288-46.618,32.999
		c-9.476,13.118-13.01,27.779-15.85,39.561c-1.939,8.045-3.771,15.644-6.789,19.959c-3.313,4.736-10.629,9.189-18.375,13.902
		c-5.249,3.193-11.198,6.814-16.92,11.134c-22.997,17.358-38.757,43.638-43.237,72.103l54.817,8.63
		c2.231-14.174,10.401-27.797,21.854-36.441c3.506-2.646,7.794-5.256,12.333-8.019c11.145-6.781,25.013-15.221,35.004-29.504
		c9.031-12.915,12.342-26.645,15.262-38.758c1.961-8.134,3.813-15.816,6.887-20.071c4.136-5.727,14.022-10.194,24.488-14.925
		c15.35-6.938,34.453-15.572,47.206-33.903c3.03-4.354,5.388-8.843,7.318-13.226l-19.214-7.39l23.911-5.059
		c0.333-1,0.656-1.98,0.969-2.932c0.992-3.02,1.929-5.872,2.906-8.37c6.712-17.15,21.724-31.457,39.179-37.336
		c1.195-0.402,2.542-0.817,3.967-1.258c6.305-1.942,14.151-4.361,21.958-9.549c1.997-1.326,3.856-2.746,5.592-4.234
		C2462.633,1640.349,2458.928,1616.017,2440.83,1607.782z"/>
	<path style="opacity:0.5;fill:#FFFFFF;" d="M1339.967,765.333c-7.984-12.836-20.18-22.435-32.566-31.1
		c-63.77-44.606-139.771-71.539-217.399-77.039c-18.282-1.295-40.849-4.307-47.042-21.556c-5.688-15.839,7.818-32.604,23.054-39.751
		s32.714-8.714,47.605-16.556c14.891-7.841,26.907-26.284,19.09-41.188c-4.694-8.951-14.822-13.438-24.361-16.777
		c-60.133-21.054-123.574-21.995-187.548-16.524c-43.044,14.375-86.695,26.932-130.803,37.607
		c-52.094,12.608-105.526,22.858-153.264,47.229c-4.247,2.168-8.411,4.44-12.509,6.792c39.135,8.432,78.664,15.035,118.42,19.734
		c16.62,1.965,36.586,6.069,42.153,21.852c4.758,13.49-4.112,28.805,0.074,42.483c5.572,18.205,29.112,22.239,48.137,22.968
		s42.553,4.658,48.247,22.825c2.534,8.083,0.426,17.049-3.773,24.406c-10.909,19.112-33.992,27.996-55.893,30.135
		c-21.901,2.138-44.053-1.004-65.969,0.99c-51.607,4.697-101.833,37.513-151.86,23.993c-22.306-6.028-41.144-20.688-62.07-30.485
		c-20.138-9.429-41.543-14.13-63.536-16.096c-13.767,25.926-25.926,53.033-36.9,80.496c44.708-1.101,92.23-1.398,130.277,22.072
		c11.093,6.843,20.992,15.518,32.255,22.077c14.537,8.465,31.081,13.203,47.818,14.897c65.683,6.649,126.394-31.884,190.036-49.44
		c88.031-24.283,182.197-7.937,269.707,18.163c35.003,10.44,69.948,22.497,106.358,25.408s75.351-4.485,102.669-28.731
		C1347.694,839.972,1359.258,796.35,1339.967,765.333z"/>
	<path style="fill:#74BDC1;" d="M1915.238,1883.36c0,0-144.305-123.953-299.709-37.001c0,0,0-157.255-114.704-173.905
		s-216.457,74.002-190.556,172.056c0,0-238.658-46.252-283.06,66.602l888.028,7.4V1883.36z"/>
	<path style="fill:#9DE0DE;" d="M2309.634,1940.003c-89.694-170.788-254.339-93.381-254.339-93.381s-28.261-157.272-238.367-111.811
		c0,0-88.466,25.802-100.753,133.927c0,0-122.869-44.232-146.215,77.408L2309.634,1940.003z"/>
	<path style="fill:#333333;" d="M773.588,841.046c0,0-18.428,10.422-23.965,25.161c-4.728,12.585-25.799,10.379-38.975,27.197
		c-14.634,18.678-35.444,46.611,12.283,65.449c29.647,11.702,76.854,20.705,87.558,12.809c10.703-7.896,36.221-4.736,30.48-87.732
		c0,0-69.785-29.129-70.487-29.304C769.78,854.451,773.588,841.046,773.588,841.046z"/>
	<path style="fill:#333333;" d="M841.021,876.432c0,23.71-19.22,42.931-42.93,42.931c-23.709,0-42.93-19.221-42.93-42.931
		c0-23.709,19.221-42.93,42.93-42.93C821.8,833.502,841.021,852.722,841.021,876.432z"/>
	<path style="fill:#FFC0BB;" d="M956.105,1006.151l-3.131,1.467c-13.345,3.204-89.42,21.328-92.931,19.01
		c-3.848-2.541-21.043-38.033-21.043-38.033l-19.526,31.786c0,0,17.638,33.417,29.115,38.705
		c11.2,5.16,90.067-23.484,112.286-36.983l2.245-0.998c2.163,0.456,7.834,1.26,7.834,1.26c22.671,2.569,20.339,2.706,20.521,1.824
		c0.182-0.881-8.975-4.834-8.437-5.688c0.538-0.854,13.869,0.046,13.233-1.077c-0.635-1.122-12.919-3.584-12.684-4.371
		c0.235-0.788,13.096,0.285,13.052-1.599c-0.044-1.884-14.146-2.544-13.623-4.025c0.523-1.482,14.974-0.407,14.68-2.131
		c-0.248-1.449-16.402-3.081-21.537-3.563c-0.663-0.063-1.027-0.905-0.642-1.474c5.927-8.756,5.9-9.838,4.839-10.374
		c-0.756-0.382-8.208,5.254-15.473,10.08L956.105,1006.151z"/>
	<g>
		<path style="fill:#E03268;" d="M597.865,1155.435h485.67c20.153,0,36.49,16.337,36.49,36.489v708.543
			c0,20.152-16.337,36.49-36.49,36.49h-485.67c-20.153,0-36.49-16.338-36.49-36.49v-708.543
			C561.375,1171.771,577.712,1155.435,597.865,1155.435z"/>
		<rect x="602.51" y="1192.775" style="fill:#F3FCFF;" width="476.38" height="666.431"/>
		<path style="fill:#CFE4FF;" d="M959.532,1209.949H701.595v-29.631c0-27.121,21.986-49.106,49.107-49.106h159.724
			c27.121,0,49.106,21.985,49.106,49.106V1209.949z"/>
		<rect x="637.374" y="1269.493" style="fill:#CFE4FF;" width="250.567" height="18.6"/>
		<rect x="637.374" y="1337.772" style="fill:#CFE4FF;" width="250.567" height="18.599"/>
		<rect x="637.374" y="1406.051" style="fill:#CFE4FF;" width="250.567" height="18.6"/>
		<rect x="637.374" y="1474.33" style="fill:#CFE4FF;" width="250.567" height="18.6"/>
		<rect x="637.374" y="1542.609" style="fill:#CFE4FF;" width="250.567" height="18.6"/>
		<rect x="637.374" y="1610.889" style="fill:#CFE4FF;" width="250.567" height="18.6"/>
		<rect x="637.374" y="1679.168" style="fill:#CFE4FF;" width="250.567" height="18.6"/>
		<rect x="637.374" y="1747.447" style="fill:#CFE4FF;" width="250.567" height="18.6"/>
		<rect x="944.501" y="1269.493" style="fill:#CFE4FF;" width="142.128" height="136.401"/>
		<rect x="944.501" y="1449.568" style="fill:#CFE4FF;" width="142.128" height="136.402"/>
		<rect x="944.501" y="1629.645" style="fill:#CFE4FF;" width="142.128" height="136.402"/>
	</g>
	<polygon style="fill:#FFC0BB;" points="925.23,1299.567 924.119,1326.467 900.757,1317.482 903.866,1298.128 	"/>
	<g>
		<path style="fill:#122F5B;" d="M944.629,1359.734l-54.232-18.044c-1.676-0.558-2.582-2.368-2.024-4.044l0,0
			c0.558-1.676,2.368-2.582,4.044-2.024l54.232,18.044c1.676,0.558,2.582,2.368,2.024,4.044l0,0
			C948.115,1359.386,946.305,1360.292,944.629,1359.734z"/>
		<path style="fill:#55769F;" d="M898.277,1317.095l-7.614,16.214c-0.939,1.999-0.403,4.275,1.126,4.784l53.137,17.681
			c1.38,0.459,3.031,0.052,4.295-1.327c1.296-1.413,2.276-3.865,1.017-8.02c-2.493-8.222-17.295-15.008-23.16-23.178
			c-0.12-0.167-0.285-0.29-0.48-0.355l-24.452-8.136C900.764,1314.298,899.125,1315.287,898.277,1317.095z"/>
		<g>
			<path style="fill:#FFFFFF;" d="M919.88,1331.544L919.88,1331.544c-0.306-0.364-0.231-1.058,0.155-1.477
				c1.813-1.965,6.947-6.51,13.198-3.146c0.361,0.194,0.452,0.79,0.211,1.293l-0.008,0.017c-0.232,0.487-0.688,0.705-1.038,0.519
				c-5.609-2.993-10.033,1.046-11.522,2.704C920.559,1331.808,920.134,1331.846,919.88,1331.544z"/>
		</g>
		<g>
			<path style="fill:#FFFFFF;" d="M924.676,1335.553L924.676,1335.553c-0.306-0.364-0.231-1.058,0.155-1.477
				c1.813-1.965,6.947-6.51,13.198-3.146c0.361,0.194,0.452,0.79,0.211,1.293l-0.008,0.017c-0.232,0.487-0.688,0.705-1.038,0.519
				c-5.609-2.993-10.033,1.046-11.522,2.704C925.355,1335.816,924.93,1335.854,924.676,1335.553z"/>
		</g>
		<g>
			<path style="fill:#FFFFFF;" d="M929.134,1339.287L929.134,1339.287c-0.306-0.364-0.231-1.058,0.155-1.477
				c1.813-1.965,6.947-6.51,13.198-3.146c0.361,0.194,0.451,0.79,0.211,1.294l-0.008,0.016c-0.232,0.487-0.688,0.705-1.039,0.519
				c-5.609-2.993-10.033,1.047-11.521,2.704C929.813,1339.551,929.388,1339.59,929.134,1339.287z"/>
		</g>
	</g>
	<path style="fill:#122F5B;" d="M748.013,1111.509c0,0-10.903,51.305,38.564,63.486c49.467,12.182,111.895,13.42,111.895,13.42
		l1.154,119.505l26.038,2.982c0,0,77.696-161.039-13.774-192.755l-83.694-4.871l-34.296-4.636c0,0-34.318-10.813-34.832-9.199
		C758.555,1101.056,748.781,1112.381,748.013,1111.509z"/>
	<path style="fill:#FFC0BB;" d="M806.256,942.183c0,0-30.5-6.825-46.323-6.292c-15.822,0.534,5.684,42.168,5.684,42.168l25.84,0.574
		c0,0,15.758-10.502,18.062-10.364c8.711,0.523,1.917-24.542,1.917-24.542L806.256,942.183z"/>
	<path style="fill:#FFC0BB;" d="M775.578,909.352l-9.075,27.544c0,0,7.901,16.335,32.097,9.29c0,0-2.76-5.705,0.943-17.452
		C803.326,916.73,775.578,909.352,775.578,909.352z"/>
	<path style="opacity:0.6;fill:#FC8D84;" d="M775.578,909.352l-4.259,12.867c2.536,9.404,10.771,15.809,26.3,17.797
		c-0.006-2.796,0.428-6.538,1.923-11.282C803.326,916.73,775.578,909.352,775.578,909.352z"/>
	<path style="fill:#F99893;" d="M830.935,889.185c-1.963,4.473-0.654,9.372,2.924,10.943c3.579,1.571,8.071-0.782,10.035-5.255
		c1.964-4.473,0.655-9.372-2.924-10.943C837.391,882.359,832.898,884.712,830.935,889.185z"/>
	<path style="fill:#FFC0BB;" d="M828.933,915.605c1.178-1.92,2.185-3.964,3.004-6.109c2.32-5.76,3.578-11.907,4.245-17.28
		c0.143-1.153,0.352-2.295,0.583-3.434c0.933-4.598,1.046-9.496,0.095-14.561c-3.059-16.298-16.723-28.879-33.221-30.545
		c-22.226-2.245-41.105,14.844-41.685,36.579c-2.328-1.376-4.974-1.75-7.338-0.768c-4.536,1.883-6.305,8.006-3.951,13.676
		c2.354,5.67,7.939,8.74,12.475,6.857c0.63-0.262,1.201-0.612,1.72-1.024c1.392,18.545,16.166,33.225,34.349,33.409
		c8.892,0.089,17.037-3.308,23.25-8.964c0.414-0.328,0.85-0.714,1.309-1.164C825.784,920.303,827.484,918.038,828.933,915.605z"/>
	<path style="fill:#F99893;" d="M820.301,882.313c-0.716,2.049-1.089,4.188-1.211,6.368c-0.059,1.095-0.032,2.195,0.117,3.322
		c0.172,1.12,0.432,2.276,1.144,3.393l0.313,0.404l0.282,0.346c0.117,0.163,0.295,0.3,0.374,0.475
		c0.223,0.324,0.359,0.675,0.412,1.037c0.151,0.731-0.192,1.524-0.723,2.233c-1.146,1.429-3.157,2.215-5.255,2.642
		c2.089,0.411,4.57,0.15,6.42-1.536c0.903-0.815,1.602-2.11,1.499-3.521c-0.025-0.348-0.079-0.693-0.205-1.014
		c-0.091-0.339-0.26-0.629-0.426-0.923c-0.155-0.307-0.394-0.523-0.594-0.785c-0.128-0.146-0.148-0.193-0.213-0.278l-0.174-0.226
		c-0.448-0.674-0.723-1.623-0.938-2.579c-0.235-0.965-0.303-1.995-0.432-3.021C820.511,886.583,820.43,884.471,820.301,882.313z"/>
	<polygon style="fill:#FFC0BB;" points="881.889,1296.333 869.862,1330.801 852.165,1313.102 858.556,1296.777 	"/>
	<path style="fill:#333333;" d="M807.512,886.701c-0.019,1.822-1.51,3.284-3.332,3.266c-1.821-0.019-3.283-1.51-3.265-3.332
		c0.019-1.822,1.51-3.283,3.332-3.265C806.068,883.388,807.53,884.88,807.512,886.701z"/>
	<path style="fill:#333333;" d="M832.011,887.303c-0.018,1.822-1.51,3.284-3.331,3.265c-1.822-0.019-3.284-1.51-3.265-3.332
		c0.019-1.821,1.51-3.283,3.332-3.265C830.568,883.99,832.03,885.481,832.011,887.303z"/>
	<path style="opacity:0.3;fill:#F99893;" d="M807.024,908.619c0,0,4.488-1.607,8.71,1.159c0,0,4.564-2.857,8.161-0.128
		c0,0-1.67,6.797-9.168,6.339C807.228,915.53,807.024,908.619,807.024,908.619z"/>
	<path style="fill:#F99893;" d="M803.096,906.184c0.849,0.687,1.732,1.32,2.662,1.873c0.918,0.57,1.868,1.083,2.852,1.514
		c1.963,0.861,4.035,1.468,6.153,1.646c2.117,0.189,4.255-0.074,6.299-0.697c2.037-0.653,3.962-1.672,5.778-2.885
		c-0.81,0.733-1.68,1.406-2.608,2c-0.928,0.596-1.935,1.064-2.962,1.484c-1.041,0.389-2.125,0.673-3.231,0.831
		c-1.108,0.144-2.231,0.171-3.345,0.088c-2.228-0.207-4.396-0.871-6.356-1.897C806.379,909.114,804.566,907.807,803.096,906.184z"/>
	<path style="fill:#333333;" d="M808.739,876.841c-1.697-0.457-3.291-0.794-4.863-0.98c-1.569-0.183-3.099-0.168-4.583,0.067
		c-1.474,0.253-2.952,0.625-4.361,1.33c-0.752,0.264-1.398,0.74-2.156,1.089c-0.727,0.397-1.398,0.892-2.216,1.287
		c0.387-0.78,0.844-1.546,1.383-2.253c0.599-0.644,1.169-1.367,1.928-1.868c1.409-1.156,3.208-1.856,5.036-2.152
		c1.841-0.29,3.74-0.089,5.443,0.522C806.044,874.506,807.61,875.469,808.739,876.841z"/>
	<path style="fill:#333333;" d="M823.799,876.844c1.288-1.225,2.959-1.99,4.716-2.403c1.764-0.399,3.674-0.367,5.466,0.145
		c1.779,0.517,3.479,1.431,4.737,2.749c0.693,0.59,1.17,1.377,1.686,2.089c0.449,0.767-1.233,0.036-0.945,0.857
		c-0.763-0.491,0.674,0.483,0,0c-0.709-0.439-1.294-0.989-2.007-1.343c-1.312-0.87-2.734-1.419-4.167-1.85
		c-1.443-0.415-2.961-0.615-4.54-0.625C827.162,876.456,825.539,876.597,823.799,876.844z"/>
	<path style="fill:#3660AC;" d="M824.8,1019.867c0,0-6.716,19.638-7.938,30.066c-3.033,25.902,2.577,48.141,7.938,62.883
		c7.519,20.68-56.206,9.193-57.459,8.566c-1.253-0.627-53.892-20.992-53.892-20.992l-3.967-40.594l-6.059-39.93l2.82-23.499
		L824.8,1019.867z"/>
	<path style="fill:#FFC0BB;" d="M723.85,962.781c0,0,8.156,0.709,7.269,14.893c-0.886,14.185-7.508,41.187-7.508,41.187
		s-64.32,123.613-78.417,135.638c-0.764,0.652-1.729,1.015-2.733,1.05l-43.342-0.172c0,0,2.778-2.782,5.766-3.574l20.201-5.359
		c0.796-0.212,1.471-0.74,1.867-1.462l6.472-11.813l48.781-130.113c4.976-11.592,16.815-18.217,24.949-27.86
		C713.1,968.149,719.583,962.083,723.85,962.781z"/>
	<g>
		<path style="fill:#3660AC;" d="M811.435,943.727c-0.604,12.328-17.864,32.874-17.864,32.874
			c-3.128-6.871-33.26-40.292-33.638-40.711c-12.41,0.193-38.749,2.029-54.845,13.459c-21.619,15.353-34.565,49.837-34.565,49.837
			s39.165,19.739,48.878,20.679h108.723c0,0,16.606-1.254,32.585-9.399C860.71,1010.468,858.136,959.382,811.435,943.727z"/>
	</g>
	<path style="fill:#DAEEF7;" d="M736.812,978.633c-1.119,3.351-2.111,6.739-3.114,10.125c-1.009,3.385-1.917,6.797-2.818,10.214
		c-0.861,3.426-1.731,6.853-2.479,10.31c-0.743,3.459-1.472,6.926-2.027,10.435l0.828-0.831c-1.068,0.11-2.381,0.072-3.591-0.024
		c-1.234-0.081-2.472-0.265-3.706-0.442c-2.462-0.438-4.932-0.908-7.359-1.59l-1.826-0.483l-1.81-0.555
		c-1.204-0.38-2.417-0.725-3.607-1.154l-3.585-1.239l-3.542-1.37c-2.371-0.89-4.685-1.935-7.033-2.896l-6.934-3.158l-6.87-3.323
		c-2.26-1.17-4.526-2.333-6.815-3.462c2.154,1.362,4.331,2.692,6.513,4.015c2.201,1.29,4.424,2.548,6.659,3.785
		c2.255,1.198,4.532,2.359,6.819,3.504l3.482,1.614c1.159,0.542,2.318,1.086,3.511,1.555c4.703,2.03,9.552,3.752,14.517,5.116
		l1.865,0.502l1.888,0.43c1.251,0.314,2.536,0.506,3.811,0.731c1.287,0.176,2.573,0.355,3.882,0.432
		c1.327,0.085,2.573,0.143,4.039-0.023l0.714-0.08l0.114-0.751c1.056-6.926,2.463-13.83,3.93-20.719l2.239-10.334L736.812,978.633z"
		/>
	<path style="fill:#DAEEF7;" d="M819.475,970.703c1.533,4.01,2.926,8.036,4.169,12.095c1.221,4.063,2.301,8.16,3.022,12.31
		c0.4,2.068,0.658,4.157,0.836,6.246c0.211,2.089,0.233,4.186,0.156,6.277c-0.155,4.185-6.358,23.878-8.183,27.776
		c2.575-3.458,9.329-23.317,9.784-27.648c0.524-4.35,0.165-8.742-0.567-13.013c-0.407-2.131-0.882-4.247-1.473-6.328
		c-0.617-2.073-1.272-4.132-2.061-6.14C823.607,978.256,821.773,974.339,819.475,970.703z"/>
	<path style="fill:#224887;" d="M711.682,1098.919c-10.509,13.801-12.721,32.45-5.046,48.006c5.33,10.803,15.39,20.872,33.94,25.44
		c49.467,12.182,111.894,13.42,111.894,13.42l1.154,119.506l26.038,2.982c0,0,77.696-161.04-13.774-192.756l-83.693-4.871
		l-34.296-4.636c0,0-34.318-10.813-34.831-9.199C712.959,1097.152,712.44,1097.923,711.682,1098.919z"/>
	<path style="fill:#DAEEF7;" d="M866.374,1188.974c-1.328-0.241-2.655-0.466-3.964-0.774c-1.31-0.303-2.604-0.658-3.885-1.042
		c-0.642-0.201-1.289-0.417-1.921-0.651c0.664-0.138,1.309-0.33,1.949-0.56c1.266-0.446,2.447-1.09,3.558-1.82
		c1.071-0.79,2.088-1.644,2.975-2.619c0.892-0.97,1.657-2.04,2.332-3.153l-1.318,1.432c-0.473,0.442-0.912,0.912-1.405,1.323
		c-0.939,0.874-1.988,1.608-3.064,2.272c-1.084,0.655-2.232,1.186-3.415,1.603c-1.174,0.397-2.447,0.687-3.62,0.729l-2.152,0.078
		l1.91,0.888c1.297,0.603,2.588,0.998,3.913,1.369c1.318,0.37,2.661,0.63,4.004,0.859c1.345,0.218,2.693,0.408,4.049,0.508
		c1.356,0.1,2.711,0.166,4.067,0.16C869.044,1189.38,867.703,1189.215,866.374,1188.974z"/>
	<path style="opacity:0.8;fill:#FFFFFF;" d="M2190.133,399.189c-4.582-19.942-22.427-34.819-43.76-34.819
		c-3.916,0-7.714,0.503-11.335,1.446c-10.529-22.515-33.378-38.116-59.874-38.116c-6.851,0-13.457,1.043-19.67,2.978
		c-14.264-23.62-40.179-39.413-69.783-39.413c-35.223,0-65.223,22.355-76.591,53.65c-8.046-4.486-17.31-7.052-27.176-7.052
		c-30.874,0-55.901,25.028-55.901,55.902c0,1.831,0.094,3.639,0.266,5.424H2190.133z"/>
	<g>
		<path style="fill:#FFFFFF;" d="M1934.963,609.086c-0.426-33.34-24.135-61.83-56.843-68.303l-59.047-11.686
			c-9.329-1.846-17.687-6.975-23.558-14.456l-22.846-29.109c-6.257-7.973-15.83-12.628-25.965-12.628h-155.569
			c-10.135,0-19.708,4.656-25.965,12.628l-22.845,29.109c-5.871,7.481-14.229,12.61-23.559,14.456l-59.047,11.686
			c-32.708,6.473-56.417,34.963-56.842,68.303l-6.91,542.244c-0.291,22.779,9.66,44.485,27.123,59.115
			c34.039,28.518,101.738,68.217,214.437,67.654v33.652c0,19.668,15.944,35.611,35.611,35.611l0,0
			c19.668,0,35.611-15.943,35.611-35.611v-33.691c107.649-1.4,172.817-39.817,205.998-67.615
			c17.464-14.63,27.414-36.336,27.124-59.115L1934.963,609.086z M1668.921,507.164c15.938,0,28.86,12.921,28.86,28.86
			c0,15.94-12.922,28.86-28.86,28.86c-15.939,0-28.86-12.921-28.86-28.86C1640.061,520.085,1652.981,507.164,1668.921,507.164z"/>
		<path style="fill:#DAEEF7;" d="M1458.257,663.258c-13.315,1.808-23.292,12.993-23.464,26.319l-5.525,430.06
			c-0.256,19.835,8.481,38.734,23.813,51.473c30.807,25.595,93.01,61.535,197.521,58.764c12.209-0.324,24.429-0.324,36.639,0
			c104.511,2.771,166.713-33.169,197.52-58.764c15.333-12.738,24.069-31.638,23.814-51.473L1903,685.824
			c-0.173-13.439-10.322-24.702-23.771-26.365C1706.455,638.095,1551.327,650.623,1458.257,663.258z"/>
		<path style="fill:#E72C3B;" d="M1883.301,829.143l-213.936,31.941l-214.404-53.805l-0.14-0.212l-3.728,292.505
			c-0.231,18.179,7.709,35.501,21.646,47.176c28.001,23.459,84.538,56.4,179.53,53.859c11.098-0.298,22.204-0.298,33.303,0
			c94.991,2.541,151.529-30.4,179.529-53.859c13.937-11.675,21.878-28.997,21.646-47.176L1883.301,829.143L1883.301,829.143z"/>
		<path style="fill:#B20B1F;" d="M1454.961,807.278c0,0,182.674,53.169,290.964-7.835c108.291-61.003,203.539,25.452,78.68,90.269
			C1696.389,956.272,1454.961,807.278,1454.961,807.278z"/>
		<path style="fill:#FFFFFF;" d="M1621.113,916.011h-139.614c-5.908,0-10.698-4.79-10.698-10.698V765.699
			c0-5.908,4.79-10.698,10.698-10.698h139.614c5.908,0,10.698,4.79,10.698,10.698v139.614
			C1631.812,911.221,1627.021,916.011,1621.113,916.011z"/>
		<path style="opacity:0.5;fill:#FFFFFF;" d="M1846.386,1126.396h-13.938c-12.202,0-22.094-9.892-22.094-22.094V711.028
			c0-12.203,9.892-22.094,22.094-22.094h13.938c12.202,0,22.095,9.892,22.095,22.094v393.274
			C1868.48,1116.505,1858.588,1126.396,1846.386,1126.396z"/>
		<rect x="1488.67" y="785.135" style="fill:#B6D5E0;" width="123.88" height="7.426"/>
		<rect x="1488.67" y="811.464" style="fill:#B6D5E0;" width="123.88" height="7.426"/>
		<rect x="1488.67" y="837.792" style="fill:#B6D5E0;" width="123.88" height="7.426"/>
		<rect x="1488.67" y="864.122" style="fill:#B6D5E0;" width="123.88" height="7.426"/>
	</g>
	<path style="fill:#FFC0BB;" d="M1098.093,1139.271c-3.086-0.187-5.372-2.976-5.338-6.067
		c0.264-24.443,0.803-160.556-19.996-156.924c-22.847,3.989-18.858,188.944-17.77,209.252c1.088,20.31,3.626,118.952,8.704,141.437
		c5.078,22.484,16.261,499.015,10.518,609.988h214.33c0,0-56.574-517.148-44.969-555.59s20.309-65.278,47.871-104.445
		s23.935-105.17,32.639-124.028c8.703-18.858,29.013-45.332,11.604-53.311c-17.407-7.979-49.684,42.794-62.739,91.39
		c0,0-8.341,13.418-14.506-3.264c-6.165-16.683-17.044-201.275-17.77-215.056c-0.726-13.781-7.253-25.386-17.045-24.298
		c-9.792,1.088-14.144,35.178-15.231,91.026c-1.088,55.85,1.883,101.182-10.12,99.006c-12.002-2.177-6.563-176.251-15.992-205.626
		s-27.925-9.066-27.562,26.474c0.363,35.54,5.803,174.076-5.44,172.624c-11.242-1.45-5.802-192.57-25.386-190.757
		c-20.235,1.874-20.309,31.551-20.309,82.323C1103.585,1069.755,1114.154,1140.241,1098.093,1139.271z"/>
	<path style="fill:#F99893;" d="M1076.386,1169.213c0,0,90.301-28.287,158.299-3.808
		C1234.685,1165.405,1152.543,1158.877,1076.386,1169.213z"/>
	<path style="fill:#F99893;" d="M1079.287,1219.985c0,0,78.333,68.179,93.928,101.906c0,0,42.068-76.884,76.158-104.445
		c0,0-51.86,22.485-75.07,64.553C1174.303,1281.999,1130.421,1235.579,1079.287,1219.985z"/>
	<path style="fill:#F99893;" d="M1079.287,1332.046c0,0,6.527,42.793,70.355,36.628
		C1149.642,1368.674,1097.733,1359.704,1079.287,1332.046z"/>
	<path style="fill:#DAEEF7;" d="M1219.216,1500.322h-109.773c-7.843,0-14.2,6.357-14.2,14.2v109.773
		c0,7.842,6.357,14.199,14.2,14.199h40.687v47.787c0,7.842,6.357,14.199,14.199,14.199l0,0c7.842,0,14.2-6.357,14.2-14.199v-47.787
		h40.687c7.842,0,14.2-6.357,14.2-14.199v-109.773C1233.416,1506.68,1227.059,1500.322,1219.216,1500.322z"/>
	<path style="fill:#EAF5F9;" d="M1200.932,1613.714h-73.203c-4.255,0-7.704-3.448-7.704-7.704v-73.202
		c0-4.255,3.449-7.704,7.704-7.704h73.203c4.254,0,7.703,3.449,7.703,7.704v73.202
		C1208.635,1610.266,1205.186,1613.714,1200.932,1613.714z"/>
	<g>
		<rect x="1340.893" y="1447.98" style="opacity:0.9;fill:#FFFFFF;" width="75.419" height="462.628"/>
		<path style="fill:#FEB546;" d="M1423.501,1487.854h-89.798c-3.989,0-7.223-3.234-7.223-7.224v-52.33
			c0-3.989,3.233-7.223,7.223-7.223h89.798c3.989,0,7.224,3.233,7.224,7.223v52.33
			C1430.725,1484.62,1427.49,1487.854,1423.501,1487.854z"/>
		<rect x="1336.966" y="1421.078" style="fill:#F4A640;" width="11.981" height="66.535"/>
		<rect x="1360.729" y="1421.078" style="fill:#F4A640;" width="11.981" height="66.535"/>
		<rect x="1384.493" y="1421.078" style="fill:#F4A640;" width="11.981" height="66.535"/>
		<rect x="1408.257" y="1421.078" style="fill:#F4A640;" width="11.981" height="66.535"/>
		<path style="fill:#F4A640;" d="M1397.415,1508.871h-37.626c-5.987,0-10.842-4.854-10.842-10.841v-10.417h59.31v10.417
			C1408.257,1504.018,1403.402,1508.871,1397.415,1508.871z"/>
		<polygon style="fill:#E72C3B;" points="1408.409,1910.608 1348.795,1910.608 1348.795,1664.883 1374.181,1674.25 
			1408.409,1664.883 		"/>
		<path style="fill:#B20B1F;" d="M1348.795,1664.883c0,0,25.932,7.746,41.305-1.142s26.808,0.317,11.17,13.151
			C1385.17,1690.104,1348.795,1664.883,1348.795,1664.883z"/>
		<path style="opacity:0.2;fill:#FFFFFF;" d="M1362.987,1904.363h-4.516c-2.007,0-3.634-1.626-3.634-3.633v-398.854
			c0-2.007,1.627-3.634,3.634-3.634h4.516c2.007,0,3.633,1.627,3.633,3.634v398.854
			C1366.62,1902.737,1364.994,1904.363,1362.987,1904.363z"/>
		<rect x="1471.225" y="1447.98" style="opacity:0.9;fill:#FFFFFF;" width="75.419" height="462.628"/>
		<path style="fill:#FEB546;" d="M1553.832,1487.854h-89.797c-3.989,0-7.223-3.234-7.223-7.224v-52.33
			c0-3.989,3.233-7.223,7.223-7.223h89.797c3.99,0,7.224,3.233,7.224,7.223v52.33
			C1561.056,1484.62,1557.822,1487.854,1553.832,1487.854z"/>
		<rect x="1467.298" y="1421.078" style="fill:#F4A640;" width="11.981" height="66.535"/>
		<rect x="1491.062" y="1421.078" style="fill:#F4A640;" width="11.981" height="66.535"/>
		<rect x="1514.825" y="1421.078" style="fill:#F4A640;" width="11.981" height="66.535"/>
		<rect x="1538.589" y="1421.078" style="fill:#F4A640;" width="11.981" height="66.535"/>
		<path style="fill:#F4A640;" d="M1527.747,1508.871h-37.626c-5.987,0-10.842-4.854-10.842-10.841v-10.417h59.31v10.417
			C1538.589,1504.018,1533.734,1508.871,1527.747,1508.871z"/>
		<polygon style="fill:#E72C3B;" points="1538.741,1910.608 1479.127,1910.608 1479.127,1664.883 1504.513,1674.25 
			1538.741,1664.883 		"/>
		<path style="fill:#B20B1F;" d="M1479.127,1664.883c0,0,25.932,7.746,41.305-1.142s26.808,0.317,11.17,13.151
			C1515.502,1690.104,1479.127,1664.883,1479.127,1664.883z"/>
		<path style="opacity:0.2;fill:#FFFFFF;" d="M1493.319,1904.363h-4.516c-2.007,0-3.634-1.626-3.634-3.633v-398.854
			c0-2.007,1.627-3.634,3.634-3.634h4.516c2.006,0,3.633,1.627,3.633,3.634v398.854
			C1496.952,1902.737,1495.325,1904.363,1493.319,1904.363z"/>
		<rect x="1601.557" y="1447.98" style="opacity:0.9;fill:#FFFFFF;" width="75.419" height="462.628"/>
		<path style="fill:#FEB546;" d="M1684.164,1487.854h-89.797c-3.989,0-7.223-3.234-7.223-7.224v-52.33
			c0-3.989,3.233-7.223,7.223-7.223h89.797c3.99,0,7.224,3.233,7.224,7.223v52.33
			C1691.388,1484.62,1688.154,1487.854,1684.164,1487.854z"/>
		<rect x="1597.63" y="1421.078" style="fill:#F4A640;" width="11.981" height="66.535"/>
		<rect x="1621.394" y="1421.078" style="fill:#F4A640;" width="11.981" height="66.535"/>
		<rect x="1645.157" y="1421.078" style="fill:#F4A640;" width="11.981" height="66.535"/>
		<rect x="1668.921" y="1421.078" style="fill:#F4A640;" width="11.981" height="66.535"/>
		<path style="fill:#F4A640;" d="M1658.079,1508.871h-37.626c-5.988,0-10.842-4.854-10.842-10.841v-10.417h59.31v10.417
			C1668.921,1504.018,1664.066,1508.871,1658.079,1508.871z"/>
		<polygon style="fill:#E72C3B;" points="1669.073,1910.608 1609.458,1910.608 1609.458,1664.883 1634.845,1674.25 
			1669.073,1664.883 		"/>
		<path style="fill:#B20B1F;" d="M1609.458,1664.883c0,0,25.933,7.746,41.306-1.142s26.808,0.317,11.17,13.151
			C1645.834,1690.104,1609.458,1664.883,1609.458,1664.883z"/>
		<path style="opacity:0.2;fill:#FFFFFF;" d="M1623.65,1904.363h-4.515c-2.007,0-3.634-1.626-3.634-3.633v-398.854
			c0-2.007,1.627-3.634,3.634-3.634h4.515c2.007,0,3.634,1.627,3.634,3.634v398.854
			C1627.284,1902.737,1625.657,1904.363,1623.65,1904.363z"/>
	</g>
	<path style="fill:#18196B;" d="M1782.043,1605.072c6.567,0,11.891-5.323,11.891-11.89v-30.266c0-6.566-5.323-11.89-11.891-11.89
		h-546.218c-6.567,0-11.89,5.323-11.89,11.89v30.266c0,6.566,5.323,11.89,11.89,11.89h39.994v299.291h-43.116
		c-4.842,0-8.768,3.926-8.768,8.768v15.613c0,4.842,3.926,8.768,8.768,8.768h552.464c4.842,0,8.768-3.926,8.768-8.768v-15.613
		c0-4.842-3.926-8.768-8.768-8.768h-43.116v-299.291H1782.043z M1721.152,1904.363h-424.437v-299.291h424.437V1904.363z"/>
	<path style="fill:#FFFFFF;" d="M1845.51,1643.825c-4.761-53.419-33.606-100.193-59.086-141.51
		c-12.462-20.207-25.349-41.102-39.089-61.127c-3.856-5.62-7.86-11.305-11.732-16.805c-23.047-32.731-46.88-66.577-52.227-104.579
		l-24.24,3.411c6.171,43.854,31.731,80.155,56.452,115.263c3.83,5.438,7.79,11.063,11.563,16.56
		c13.403,19.533,26.131,40.17,38.469,60.177c24.027,38.961,51.261,83.12,55.507,130.783c2.842,31.876-5.575,62.24-23.093,83.309
		c-22.692,27.293-62.032,42.497-120.27,46.48c-17.678,1.208-36.496,1.744-54.335-2.494c-9.472-2.251-18.683-5.835-28.435-9.631
		c-3.5-1.361-7.119-2.77-10.748-4.11c-42.564-15.718-81.634-19.692-116.129-11.817c-31.985,7.305-59.625,24.591-86.354,41.307
		c-6.974,4.36-14.185,8.87-21.271,13.064c-40.705,24.093-74.045,32.38-101.933,25.335c-25.615-6.473-49.041-27.062-64.272-56.486
		c-13.657-26.387-12.395-47.907-17.257-78.35c-2.327,4.665-7.133,7.877-12.701,7.877c-3.387,0-6.494-1.19-8.935-3.17
		c1.093,18.079,4.906,61.233,17.153,84.895c18.449,35.644,47.614,60.781,80.017,68.968c8.372,2.114,17.028,3.176,26.011,3.176
		c28.007-0.001,59.146-10.319,94.388-31.179c7.342-4.348,14.683-8.938,21.78-13.375c26.158-16.36,50.866-31.812,78.823-38.196
		c29.785-6.801,64.169-3.127,102.199,10.916c3.429,1.266,6.948,2.636,10.351,3.96c10.097,3.929,20.538,7.993,31.653,10.635
		c21.074,5.005,42.997,4.376,61.665,3.099c65.271-4.464,110.223-22.538,137.422-55.251
		C1838.477,1718.954,1848.92,1682.093,1845.51,1643.825z"/>
	<path style="fill:#E72C3B;" d="M1838.805,1644.423c-4.62-51.837-33.022-97.891-58.11-138.573
		c-12.42-20.139-25.262-40.963-38.911-60.854c-3.833-5.585-7.824-11.254-11.685-16.736c-23.508-33.385-47.815-67.905-53.389-107.518
		l-10.908,1.535c5.943,42.245,31.03,77.871,55.29,112.325c3.842,5.455,7.814,11.096,11.607,16.626
		c13.499,19.67,26.269,40.377,38.649,60.453c24.419,39.595,52.094,84.474,56.483,133.719c2.998,33.634-5.977,65.786-24.622,88.211
		c-23.932,28.783-64.814,44.776-124.986,48.893c-18.209,1.246-37.637,1.784-56.352-2.661c-9.925-2.358-19.784-6.196-29.319-9.906
		c-3.473-1.352-7.064-2.75-10.639-4.069c-41.318-15.256-79.1-19.15-112.298-11.569c-30.878,7.051-58.028,24.029-84.284,40.45
		c-7.008,4.382-14.253,8.914-21.409,13.15c-42.311,25.044-77.315,33.573-107.011,26.068c-27.482-6.943-52.486-28.782-68.604-59.918
		c-13.596-26.268-11.756-46.846-15.983-76.034c-2.278,1.555-5.029,2.467-7.996,2.467c-0.962,0-1.901-0.099-2.81-0.281
		c4.352,29.947,2.757,51.383,17.007,78.911c17.565,33.935,45.151,57.82,75.687,65.536c7.821,1.975,15.927,2.967,24.357,2.967
		c26.777-0.001,56.785-10.006,90.963-30.237c7.272-4.304,14.576-8.872,21.641-13.289c25.48-15.936,51.83-32.413,80.896-39.052
		c31.075-7.097,66.749-3.341,106.029,11.165c3.483,1.286,7.029,2.667,10.459,4c9.884,3.847,20.104,7.825,30.769,10.358
		c20.146,4.785,40.574,4.24,59.648,2.934c63.338-4.332,106.745-21.616,132.705-52.84
		C1832.172,1716.008,1842.059,1680.934,1838.805,1644.423z"/>
	<polygon style="fill:#FFC0BB;" points="1965.333,1895.833 1964.777,1911.777 1989.777,1910.556 1995.667,1891.056 	"/>
	<polygon style="fill:#FFC0BB;" points="2122.78,1871.74 2140.912,1898.866 2160.486,1883.267 2153.871,1864.001 	"/>
	<g>
		<path style="fill:#FFFFFF;" d="M2131.366,1936.766l46.286-33.531c1.43-1.036,1.75-3.035,0.713-4.466l0,0
			c-1.036-1.431-3.035-1.75-4.466-0.714l-46.285,33.53c-1.431,1.036-1.75,3.036-0.714,4.466l0,0
			C2127.937,1937.481,2129.936,1937.801,2131.366,1936.766z"/>
		<path style="fill:#333333;" d="M2162.734,1882.15l12.141,13.17c1.497,1.624,1.672,3.957,0.367,4.902l-45.353,32.854
			c-1.177,0.854-2.874,0.962-4.495,0.028c-1.661-0.958-3.334-3.001-3.383-7.342c-0.098-8.592,11.976-19.518,15.109-29.074
			c0.063-0.195,0.184-0.362,0.351-0.483l20.869-15.118C2159.521,1880.232,2161.381,1880.683,2162.734,1882.15z"/>
		<g>
			<path style="fill:#FFFFFF;" d="M2146.482,1902.432L2146.482,1902.432c0.182-0.438-0.099-1.078-0.593-1.36
				c-2.319-1.329-8.584-4.117-13.532,0.973c-0.286,0.294-0.193,0.889,0.188,1.297l0.012,0.013c0.369,0.395,0.869,0.466,1.146,0.182
				c4.448-4.542,9.883-2.021,11.802-0.889C2145.914,1902.888,2146.331,1902.797,2146.482,1902.432z"/>
		</g>
		<g>
			<path style="fill:#FFFFFF;" d="M2143.115,1907.698L2143.115,1907.698c0.183-0.439-0.098-1.078-0.592-1.361
				c-2.32-1.328-8.585-4.117-13.533,0.973c-0.285,0.294-0.192,0.89,0.188,1.297l0.013,0.014c0.368,0.395,0.868,0.466,1.146,0.182
				c4.448-4.543,9.882-2.021,11.802-0.89C2142.547,1908.154,2142.965,1908.063,2143.115,1907.698z"/>
		</g>
		<g>
			<path style="fill:#FFFFFF;" d="M2139.988,1912.602L2139.988,1912.602c0.182-0.439-0.099-1.078-0.593-1.361
				c-2.319-1.328-8.584-4.116-13.532,0.973c-0.286,0.294-0.193,0.89,0.188,1.297l0.012,0.014c0.369,0.395,0.869,0.466,1.146,0.182
				c4.448-4.542,9.883-2.021,11.802-0.889C2139.42,1913.058,2139.837,1912.967,2139.988,1912.602z"/>
		</g>
	</g>
	<path style="fill:#E72C3B;" d="M1676.71,1320.742c0,0-5.993-74.283,4.192-158.42c10.186-84.136-23.764,6.891-23.764,6.891
		s-0.726,118.167,8.663,153.064C1675.191,1357.175,1676.71,1320.742,1676.71,1320.742z"/>
	<path style="fill:#333333;" d="M2081.128,1270.738c0.936,0.518,1.836,1.115,2.598,1.866c2.57,2.534,3.333,6.555,6.098,8.874
		c1.378,1.156,3.116,1.767,4.726,2.568c2.196,1.094,4.298,2.706,5.159,5.004c0.487,1.3,0.54,2.716,0.587,4.104
		c0.085,2.511,0.163,5.077-0.584,7.476c-0.435,1.394-1.139,2.698-1.49,4.115c-0.697,2.81,0.051,5.79-0.384,8.651
		c-0.328,2.159-1.313,4.154-2.283,6.11c-0.509,1.024-1.028,2.065-1.813,2.897c-2.007,2.13-5.276,2.444-8.19,2.164
		c-2.913-0.28-5.855-1.014-8.729-0.459c-2.406,0.464-4.542,1.793-6.789,2.773c-3.441,1.502-7.231,2.198-10.982,2.018
		c-1.052-0.05-2.135-0.179-3.051-0.698c-0.951-0.539-1.629-1.443-2.279-2.322c-3.581-4.843-7.192-9.736-9.642-15.239
		c-2.449-5.504-3.675-11.747-2.269-17.604c1.052-4.381,3.516-8.321,6.502-11.693c2.987-3.372,6.5-6.231,9.994-9.074
		C2064.344,1267.356,2074.325,1266.973,2081.128,1270.738z"/>
	<path style="fill:#FFC0BB;" d="M1981.918,1482.7l6.628-28.501l-27.059-20.348c0,0-4.683,33.978-7.037,47.625l-54.668,0.955
		l-10.493,1.984c0,0,72.903,30.527,77.545,21.16c1.307-2.639,5.217-6.454,8.951-10.924c1.938,0.476,3.175,0.773,3.175,0.773
		l1.763-7.584c0.985-1.674,1.802-3.393,2.342-5.138L1981.918,1482.7z"/>
	<path style="fill:#1B4B79;" d="M2003.96,1351.982c0,0-34.944,13.787-48.474,86.069c0,0,8.744,11.838,28.259,13.147
		s13.574-46.417,13.574-46.417L2003.96,1351.982z"/>
	<polygon style="fill:#FFC0BB;" points="2045.158,1328.251 2043.83,1349.195 2015.283,1355.132 2010.239,1355.132 
		2011.293,1330.037 2041.57,1319.345 	"/>
	<path style="fill:#FFC0BB;" d="M2000.384,1361.787c-1.293,14.072,4.527,16.693,4.527,16.693l43.112-31.995
		c-26.76,2.622-44.063,5.497-44.063,5.497S2001.738,1362.172,2000.384,1361.787z"/>
	<path style="fill:#333333;" d="M2071.908,1282.7c0,0,8.802-36.114-12.165-49.64c-20.967-13.526-43.188-12.021-58.324-3.918
		c-15.136,8.104-24.198,36.359-17.413,52.504l50.24-15.416L2071.908,1282.7z"/>
	<path style="fill:#FFC0BB;" d="M1895.109,1463.826c-5.008-2.17-8.665-4.404-10.095-6.621l-1.611-4.183
		c-2.001-5.228-5.027-7.52-6.933-6.5l-0.324,0.263c0,0,1.271,8.464,2.308,15.392l-4.348-0.654l-2.298,26.36l20.721-2.787
		L1895.109,1463.826z"/>
	<path style="fill:#122F5B;" d="M2053.791,1527.301l-20.73,181.333c0,0-19.653,155.173-35.526,189.68h-35.197l7.661-346.791
		l62.043-38.998L2053.791,1527.301z"/>
	<path style="fill:#F99893;" d="M2045.773,1322.779c0,0-0.605,6.08-1.134,13.654c-10.858,11.891-31.208,7.811-33.895,6.658
		c0.164-3.811,0-11.519,0-11.519L2045.773,1322.779z"/>
	<path style="fill:#224887;" d="M2070.344,1509.764c0,0,39.339,50.726,30.021,131.473c-9.316,80.746-7.246,109.732-7.246,109.732
		s50.725,46.584,66.253,113.873c0,0-22.257,15.528-37.268,18.116c0,0-74.535-113.874-80.229-127.331
		c-5.693-13.458-41.11-225.053-41.11-225.053L2070.344,1509.764z"/>
	<path style="fill:#F99893;" d="M1990.537,1288.027c1.788,4.859,0.087,9.959-3.801,11.39s-8.488-1.349-10.277-6.208
		c-1.788-4.859-0.087-9.959,3.801-11.39S1988.749,1283.168,1990.537,1288.027z"/>
	<path style="fill:#FFC0BB;" d="M1990.947,1316.109c-1.122-2.108-2.055-4.336-2.783-6.658c-2.083-6.243-3.016-12.828-3.374-18.556
		c-0.077-1.229-0.225-2.451-0.396-3.671c-0.689-4.925-0.492-10.113,0.841-15.411c4.29-17.046,19.559-29.474,37.122-30.17
		c23.66-0.938,42.529,18.361,41.738,41.396c2.552-1.306,5.375-1.53,7.813-0.339c4.678,2.285,6.154,8.878,3.297,14.725
		c-2.856,5.848-8.965,8.734-13.642,6.449c-0.649-0.317-1.23-0.726-1.754-1.195c-2.671,19.53-19.251,34.107-38.5,33.126
		c-9.414-0.479-17.812-4.601-24.02-10.985c-0.417-0.374-0.854-0.811-1.31-1.316
		C1993.976,1321.283,1992.323,1318.776,1990.947,1316.109z"/>
	<path style="fill:#333333;" d="M2026.97,1288.54c-0.106,2.075,1.491,3.844,3.566,3.95c2.076,0.105,3.845-1.491,3.95-3.567
		c0.106-2.076-1.491-3.845-3.566-3.95C2028.844,1284.867,2027.075,1286.464,2026.97,1288.54z"/>
	<path style="fill:#333333;" d="M1993.562,1288.54c-0.106,2.075,1.491,3.844,3.566,3.95c2.076,0.105,3.845-1.491,3.95-3.567
		s-1.491-3.845-3.567-3.95C1995.436,1284.867,1993.667,1286.464,1993.562,1288.54z"/>
	<path style="fill:#333333;" d="M2023.805,1282.266c1.711-0.907,3.488-1.582,5.298-2.031c1.813-0.432,3.665-0.594,5.485-0.42
		c0.912,0.075,1.812,0.26,2.693,0.509c0.446,0.112,0.875,0.278,1.313,0.429c0.218,0.075,0.426,0.178,0.642,0.264
		c0.215,0.087,0.432,0.17,0.638,0.278c1.682,0.802,3.265,1.853,4.813,3.022c-1.149-1.563-2.618-2.914-4.315-3.947
		c-0.848-0.518-1.756-0.953-2.711-1.266c-0.95-0.32-1.941-0.542-2.945-0.629c-2.007-0.188-4.045,0.084-5.911,0.757
		c-0.938,0.327-1.83,0.76-2.676,1.257C2025.291,1280.999,2024.488,1281.57,2023.805,1282.266z"/>
	<path style="fill:#333333;" d="M2008.642,1282.266c-0.684-0.695-1.486-1.267-2.323-1.777c-0.846-0.497-1.738-0.93-2.676-1.257
		c-1.866-0.673-3.904-0.944-5.911-0.757c-1.004,0.087-1.994,0.309-2.945,0.629c-0.955,0.313-1.863,0.748-2.71,1.266
		c-1.698,1.033-3.167,2.384-4.316,3.947c1.549-1.17,3.132-2.221,4.813-3.022c0.206-0.108,0.423-0.191,0.638-0.278
		c0.216-0.086,0.424-0.188,0.642-0.264c0.437-0.15,0.866-0.316,1.313-0.429c0.882-0.249,1.782-0.434,2.693-0.509
		c1.821-0.174,3.672-0.012,5.485,0.42C2005.153,1280.684,2006.932,1281.358,2008.642,1282.266z"/>
	<path style="fill:#FFFFFF;" d="M2094.618,1408.741c-0.907-0.945-1.766-2.013-2.554-3.097c-0.784-1.097-1.526-2.227-2.174-3.411
		c-0.671-1.173-1.266-2.391-1.779-3.646c-0.545-1.246-0.941-2.548-1.353-3.859c0.176,1.358,0.437,2.722,0.865,4.035
		c0.191,0.666,0.446,1.309,0.69,1.957c0.279,0.633,0.538,1.278,0.858,1.893c0.624,1.238,1.321,2.442,2.128,3.573
		c0.641,0.917,1.323,1.788,2.088,2.619c-0.692,0.138-1.419,0.229-2.132,0.265c-0.989,0.047-1.986,0.01-2.97-0.138
		c-0.495-0.058-0.979-0.176-1.469-0.277c-0.477-0.143-0.967-0.259-1.433-0.446c-0.956-0.322-1.845-0.808-2.736-1.312
		c0.788,0.646,1.632,1.259,2.574,1.692c0.925,0.469,1.923,0.8,2.943,1.018c1.021,0.217,2.068,0.335,3.116,0.313
		c1.055-0.015,2.082-0.116,3.145-0.395l0.753-0.198L2094.618,1408.741z"/>
	<path style="fill:#F99893;" d="M2013.055,1286.806c-1.059,1.71-1.963,3.5-2.781,5.331c-0.821,1.83-1.538,3.709-2.099,5.662
		c-0.26,0.984-0.493,1.981-0.564,3.056c-0.008,0.272-0.006,0.55,0.028,0.842c0.016,0.146,0.057,0.304,0.088,0.453
		c0.064,0.163,0.104,0.321,0.222,0.487c0.059,0.083,0.122,0.164,0.187,0.24l0.156,0.137c0.105,0.087,0.206,0.182,0.314,0.261
		c0.22,0.151,0.436,0.312,0.662,0.438c0.893,0.548,1.836,0.937,2.789,1.272c0.959,0.322,1.929,0.597,2.922,0.767
		c-1.806-0.859-3.627-1.713-5.176-2.834c-0.196-0.137-0.367-0.294-0.546-0.442l-0.246-0.234l-0.119-0.115
		c-0.008-0.024-0.019-0.044-0.032-0.063c-0.12-0.195-0.135-0.697-0.088-1.132c0.093-0.914,0.317-1.868,0.587-2.805
		c0.517-1.888,1.173-3.759,1.804-5.641C2011.807,1290.606,2012.46,1288.725,2013.055,1286.806z"/>
	<path style="fill:#3660AC;" d="M2087.801,1468.477c0-0.003-0.001-0.005-0.001-0.008c5.128-28.533,7.335-59.157,7.335-59.157
		c0.291-7.059,0.202-13.308-0.166-18.836c-7.149-5.816-17.12-14.068-17.12-14.068l-17.047-29.046c0,0,0.007-0.013,0.011-0.021
		c-6.478-0.604-13.35-0.878-13.35-0.878l-42.552,32.019l-0.951-26.498c-0.214,0.16-0.427,0.319-0.634,0.488
		c-18.387,15.016-30.32,36.725-32.892,60.59c-1.815,16.844-1.596,34.792-0.581,50.83l-0.001,0.001c0,0-7.274,92.867-10.766,107.706
		c0,0,96.449,9.601,147.947,0C2107.034,1571.598,2087.332,1508.938,2087.801,1468.477z"/>
	<g>
		<path style="fill:#333333;" d="M1964.103,1541.881l-73.778,4.449c-4.659,0.28-9.826-2.707-11.54-6.674l-38.813-89.81
			c-1.714-3.966,0.674-7.409,5.333-7.69l73.778-4.448c4.66-0.281,9.826,2.706,11.541,6.673l38.812,89.81
			C1971.149,1538.156,1968.762,1541.6,1964.103,1541.881z"/>
		<path style="fill:#C8EEF1;" d="M1897.238,1443.54l-25.116,1.515c-2.013,0.121-4.246-1.17-4.986-2.884l-0.696-1.609
			c-0.74-1.714,0.292-3.202,2.305-3.323l25.116-1.515c2.014-0.121,4.246,1.17,4.987,2.884l0.695,1.609
			C1900.283,1441.931,1899.252,1443.419,1897.238,1443.54z"/>
	</g>
	<path style="fill:#FFC0BB;" d="M1869.779,1518.935l-0.313,0.139c-1.859,0.819-4.038,0.105-5.053-1.655l-11.562-20.077
		c-0.582-0.967-0.554-2.182,0.075-3.12c1.956-2.922,6.173-8.93,7.612-8.709c1.9,0.29-3.896,10.273-3.106,10.476
		c0.79,0.201,8.991-6.449,9.688-5.363c0.622,0.971-6.597,8.706-6.266,9.308s8.669-4.241,9.57-3.373
		c0.813,0.783-7.043,7.035-6.934,7.474L1869.779,1518.935z"/>
	<path style="fill:#FFC0BB;" d="M1936.109,1542.111c0.078-1.398,11.797-10.23,11.13-10.852c-0.666-0.621-13.73,7.202-14.681,5.397
		c-0.951-1.806,13.647-9.896,12.309-11.021c-1.34-1.126-16.088,7.541-16.688,5.755c-0.505-1.503,15.754-11.598,20.941-14.772
		c0.67-0.41,0.609-1.4-0.101-1.734c-10.919-5.146-11.463-6.185-10.622-7.254c0.599-0.762,11.481,0.627,21.739,1.346l12.454,1.194
		c3.498-0.825,108.069-25.527,113.771-32.387c5.799-6.976-9.761-44.69-9.761-44.69l33.965-14.58c0,0,15.548,61.863,0.573,80.926
		c-8.072,10.274-137.941,28.605-137.941,28.605c-2.051,1.576-7.637,5.34-7.637,5.34c-22.671,14.431-20.126,13.326-20.785,12.589
		c-0.66-0.737,6.953-9.325,5.931-9.849C1949.684,1535.602,1936.031,1543.51,1936.109,1542.111z"/>
	<path style="fill:#3660AC;" d="M2060.802,1347.361c0,0,38.039,14.404,62.126,70.412c0,0-11.821,26.14-50.975,27.033
		L2060.802,1347.361z"/>
	<path style="fill:#FBF9EB;" d="M2122.928,1417.773c-2.576,4.326-5.972,8.075-9.789,11.254c-3.776,3.231-8.005,5.883-12.465,8.017
		c-4.544,1.95-9.187,3.683-14.044,4.681c-2.393,0.625-4.881,0.817-7.313,1.25c-2.463,0.248-4.943,0.362-7.411,0.553l1.293,0.982
		c-1.247-4.96-2.663-9.829-4.17-14.691c-1.538-4.847-3.118-9.688-5.03-14.409c-1.865-4.736-3.97-9.39-6.354-13.897
		c-2.477-4.424-5.195-8.896-9.107-12.192c3.485,3.703,5.901,8.188,7.98,12.763c2.128,4.561,4.002,9.243,5.625,14.018
		c1.6,4.782,3.241,9.551,4.648,14.398c1.423,4.836,2.743,9.726,3.916,14.605l0.259,1.076l1.034-0.094
		c2.542-0.231,5.089-0.39,7.621-0.686c2.509-0.481,5.061-0.725,7.527-1.405c2.48-0.621,4.96-1.24,7.349-2.173
		c2.452-0.745,4.728-1.954,7.044-3.021c4.505-2.423,8.74-5.341,12.434-8.85C2117.59,1426.393,2120.854,1422.385,2122.928,1417.773z"
		/>
	<path style="fill:#FFC0BB;" d="M1862.924,1504.266c0,0,8.347-2.537,9.083-1.596s-9.124,6.26-9.083,6.015
		C1862.965,1508.438,1862.924,1504.266,1862.924,1504.266z"/>
	<path style="fill:#333333;" d="M2069.175,1277.721l-0.943-0.111l-0.632-7.836l-3.505-7.246c0,0-13.725-19.484-14.208-19.967
		c-0.482-0.483-10.949-6.763-11.594-7.085c-0.644-0.322-15.297,2.093-15.297,2.093s-25.777-5.547-21.416,8.856
		c4.361,14.404,23.188,21.899,24.153,21.255c-3.06-3.22-3.382-12.398-3.382-12.398c14.492,16.746,41.743,27.758,41.743,27.758
		s2.856-2.179,7.813-0.339L2069.175,1277.721z"/>
	<path style="fill:#FFFFFF;" d="M2004.702,1311.682c1.001,4.447,5.312,7.748,10.419,7.66c5.106-0.088,9.295-3.535,10.134-8.014
		L2004.702,1311.682z"/>
	<g>
		<g>
			<path style="fill:#55769F;" d="M750.508,1623.463h-17.37v-46.013c0-11.597-9.436-21.032-21.033-21.032H538.709
				c-11.597,0-21.033,9.436-21.033,21.032v46.013h-17.37v-46.013c0-21.175,17.228-38.402,38.403-38.402h173.395
				c21.176,0,38.403,17.228,38.403,38.402V1623.463z"/>
		</g>
		<path style="fill:#224887;" d="M532.278,1618.581h-46.573v-3.896c0-5.101,4.135-9.236,9.236-9.236h28.1
			c5.101,0,9.237,4.136,9.237,9.236V1618.581z"/>
		<path style="fill:#224887;" d="M765.109,1618.581h-46.573v-3.896c0-5.101,4.135-9.236,9.237-9.236h28.099
			c5.101,0,9.237,4.136,9.237,9.236V1618.581z"/>
		<path style="fill:#FEB546;" d="M807.06,1937.043H434.566c-13.78,0-24.951-11.171-24.951-24.951v-268.56
			c0-13.78,11.171-24.951,24.951-24.951H807.06c13.78,0,24.951,11.171,24.951,24.951v268.56
			C832.012,1925.872,820.841,1937.043,807.06,1937.043z"/>
		<rect x="479.214" y="1618.581" style="fill:#F4A640;" width="59.555" height="318.462"/>
		<rect x="712.045" y="1618.581" style="fill:#F4A640;" width="59.555" height="318.462"/>
		<polygon style="fill:#FFFFFF;" points="684.968,1762.077 641.142,1762.077 641.142,1718.251 609.672,1718.251 609.672,1762.077 
			565.846,1762.077 565.846,1793.547 609.672,1793.547 609.672,1837.373 641.142,1837.373 641.142,1793.547 684.968,1793.547 		"/>
	</g>
	<path style="fill:#333333;" d="M761.955,880.256c0,0,30.11-10.627,49.587-32.736c0,0,14.44,19.854,24.328,22.692
		c0,0,0.891-31.641-31.656-35.984C771.667,829.886,754.743,855.22,761.955,880.256z"/>
	<path style="opacity:0.5;fill:#FFFFFF;" d="M2282.757,430.188c-10.249-44.412-28.115-86.697-51.991-125.362
		c-33.511-1.09-67.063-0.919-100.561,0.531c-18.678,0.808-37.793,1.959-55.693-3.435c-17.899-5.394-34.655-18.914-38.111-37.287
		c-2.05-10.894,0.139-23.794-7.68-31.652c-4.127-4.149-10.109-5.722-15.789-7.129c-25.818-6.396-52.077-12.838-78.648-11.626
		c-55.157,2.518-115.652,36.395-161.168,5.138c-19.858-13.637-31.218-38.712-28.375-62.633
		c2.844-23.921,19.765-45.635,42.266-54.237c37.871-14.478,85.273,6.18,121.268-6.005c-124.697-14.126-251.739,24.398-364.698,80.77
		c-13.11,6.542-26.082,13.334-38.954,20.305c1.29,17.573,14.654,33.643,30.76,41.869c18.599,9.499,40.145,10.861,60.995,12.042
		c23.319,1.321,46.64,2.642,69.959,3.963c8.041,0.456,17.051,1.378,22.181,7.587c6.669,8.071,3.098,20.014,3.648,30.468
		c1,18.996,17.095,34.495,35.033,40.822c17.938,6.327,37.513,5.378,56.506,4.353c35.881-1.938,71.761-3.876,107.641-5.813
		c11.871-0.641,24.512-1.109,34.802,4.844c7.789,4.507,13.171,12.112,18.802,19.133c48.406,60.36,127.744,87.601,204.624,96.326
		c46.032,5.225,92.436,4.889,138.804,5.284C2286.765,448.981,2284.919,439.558,2282.757,430.188z"/>
	<path style="fill:#B20B1F;" d="M1012.309,810.099l-23.21-42.611l-23.209,42.611c0,0-51.305,95.338-34.814,135.998
		c0.165,0.407,0.333,0.81,0.502,1.208c21.613,50.761,93.429,50.761,115.043,0c0.17-0.399,0.337-0.802,0.502-1.208
		C1063.614,905.438,1012.309,810.099,1012.309,810.099z"/>
	<path style="fill:#E72C3B;" d="M989.099,767.488l-23.209,42.611c0,0-42.705,79.368-37.656,124.154
		c29.531,28.778,82.911,21.901,101.027-20.646c0.17-0.398,0.337-0.801,0.502-1.208c11.831-29.169-11.23-86.477-25.209-116.539
		L989.099,767.488z"/>
	<path style="fill:#FFFFFF;" d="M1076.411,827.662c-3.164,2.685-6.199,5.469-9.176,8.3c-5.938,5.673-11.567,11.586-16.989,17.66
		c-5.403,6.089-10.575,12.357-15.551,18.778c-3.375,4.362-6.656,8.799-9.841,13.31l-2.378-1.886
		c-1.571-1.232-3.182-2.422-4.77-3.635c-1.6-1.202-3.24-2.361-4.858-3.544c-3.29-2.31-6.603-4.595-10.042-6.751
		c-3.436-2.159-6.919-4.268-10.632-6.14c2,3.646,4.229,7.053,6.506,10.412c2.274,3.361,4.673,6.594,7.096,9.801
		c1.238,1.576,2.454,3.175,3.711,4.732c1.267,1.545,2.513,3.115,3.798,4.641l3.879,4.558l3.965,4.469l5.292,5.965l6.074-6.773
		c5.438-6.062,10.627-12.316,15.629-18.717c4.998-6.404,9.8-12.961,14.37-19.697c4.552-6.75,8.896-13.663,12.933-20.814
		c2.01-3.582,3.961-7.21,5.784-10.938c1.824-3.727,3.586-7.501,5.08-11.485C1082.798,822.339,1079.574,824.977,1076.411,827.662z"/>
	<path style="opacity:0.8;fill:#FFFFFF;" d="M929.954,716.414c-3.279-14.274-16.053-24.923-31.322-24.923
		c-2.803,0-5.522,0.361-8.114,1.035c-7.536-16.116-23.891-27.283-42.856-27.283c-4.903,0-9.632,0.746-14.08,2.132
		c-10.209-16.907-28.759-28.211-49.949-28.211c-25.212,0-46.685,16.001-54.822,38.402c-5.759-3.211-12.39-5.047-19.452-5.047
		c-22.099,0-40.013,17.914-40.013,40.013c0,1.31,0.067,2.605,0.19,3.883H929.954z"/>
	<path style="opacity:0.8;fill:#FFFFFF;" d="M1432.459,462.018c-2.668-11.609-13.057-20.271-25.475-20.271
		c-2.28,0-4.491,0.293-6.6,0.842c-6.129-13.107-19.431-22.189-34.855-22.189c-3.988,0-7.834,0.607-11.451,1.733
		c-8.304-13.75-23.39-22.944-40.625-22.944c-20.505,0-37.97,13.014-44.587,31.233c-4.685-2.611-10.077-4.105-15.821-4.105
		c-17.973,0-32.543,14.57-32.543,32.544c0,1.065,0.055,2.118,0.155,3.158H1432.459z"/>
	<path style="fill:#9CDEDC;" d="M272.537,1915.514c4.045,3.926,7.439,11.701,11.031,19.935c2.916,6.681,6.051,13.847,10.229,20.922
		h106.136c-2.88-1.799-5.825-3.498-8.857-5.044c-6.856-3.498-13.823-6.214-19.969-8.61c-9.07-3.535-17.636-6.876-22.024-11.265
		c-3.997-3.999-7.354-11.69-10.907-19.833c-5.203-11.925-11.68-26.766-24.148-38.864c-16.836-16.334-38.248-21.793-55.454-26.178
		c-12.036-3.068-23.404-5.966-28.72-11.309c-2.864-2.88-5.751-8.262-8.808-13.961c-1.927-3.592-3.919-7.308-6.282-11.18
		c-19.521-31.99-53.299-54.43-90.354-60.029c-2.102-0.317-4.061-0.563-5.957-0.799c-3.048-0.38-31.125-6.106-40.485,0.324l0,0
		c-17.596,12.087-16.966,38.504,1.408,49.373c2.112,1.249,4.344,2.402,6.704,3.432c9.223,4.025,17.971,5.117,24.999,5.993
		c1.588,0.198,3.089,0.386,4.429,0.588c19.553,2.954,38.097,15.275,48.398,32.154c1.5,2.458,3.023,5.299,4.636,8.306
		c0.508,0.947,1.033,1.924,1.572,2.919l26.226,0.88l-18.934,11.403c2.86,4.272,6.192,8.577,10.209,12.616
		c16.909,16.997,38.719,22.557,56.243,27.023C255.807,1907.356,267.094,1910.232,272.537,1915.514z"/>
	<path style="fill:#8FD0D6;" d="M287.406,1823.618c4.12,6.068,6.396,16.872,8.804,28.311c3.587,17.036,7.653,36.343,19.744,54.745
		c13.373,20.352,32.399,32.701,47.688,42.621c3.731,2.422,7.332,4.763,10.654,7.075h98.569
		c-10.147-21.591-25.136-40.89-43.837-55.876c-7.815-6.265-15.977-11.562-23.179-16.235c-10.626-6.896-20.663-13.409-25.098-20.158
		c-4.04-6.15-6.29-16.836-8.672-28.149c-3.488-16.567-7.831-37.187-20.532-55.89c-17.15-25.253-42.998-37.852-63.768-47.974
		c-14.529-7.081-28.252-13.77-33.618-21.979c-2.892-4.425-5.152-12.044-7.545-20.111c-1.509-5.086-3.069-10.345-5.06-15.901
		c-9.155-25.558-24.726-48.502-44.619-66.742l-17.751,28.033l7.819-36.462c-13.492-10.594-28.588-19.16-44.77-25.139
		c-2.594-0.959-5.027-1.787-7.381-2.588c-3.783-1.288-38.055-15.983-51.677-10.257l0,0c-18.765,7.89-27.069,28.16-22.09,45.787
		l35.273,2.977l-26.764,12.158c0.75,0.81,1.526,1.604,2.364,2.367c2.363,2.148,4.903,4.207,7.638,6.14
		c10.692,7.561,21.553,11.257,30.279,14.226c1.972,0.672,3.835,1.306,5.489,1.917c24.139,8.918,44.523,29.505,53.202,53.729
		c1.264,3.527,2.457,7.55,3.719,11.807c1.966,6.628,4.203,14.164,7.389,21.957l39.932,7.682l-33.361,5.896
		c0.945,1.653,1.945,3.303,3.015,4.94c17.068,26.116,43.396,38.948,64.551,49.259
		C268.236,1808.814,281.861,1815.454,287.406,1823.618z"/>
	<path style="fill:#74BDC1;" d="M257.545,1596.682c-0.763,12.702-1.684,28.15,1.163,44.604
		c20.519,11.552,60.589,34.128,56.021,31.697c-4.281-2.278-33.826-9.132-51.132-13.032c10.308,29.106,30.798,50.297,47.658,67.722
		c13.03,13.468,25.338,26.188,28.169,37.358c2.103,8.304,0.294,21.067-1.622,34.583c-2.854,20.128-6.088,42.941-0.153,67.958
		c6.564,27.669,22.525,48.808,35.35,65.791c5.225,6.919,10.159,13.455,13.886,19.577c0.685,1.124,1.336,2.272,1.97,3.431h96.394
		c-4.438-17.732-11.48-34.821-21.028-50.506c-6.081-9.991-12.927-19.059-18.968-27.06c-8.914-11.804-17.333-22.955-19.511-32.131
		c-1.982-8.36-0.192-20.985,1.703-34.353c2.776-19.575,6.229-43.938-0.255-69.529c-8.756-34.553-32.104-58.685-50.866-78.075
		c-13.125-13.563-25.52-26.375-28.137-37.526c-1.41-6.009-0.854-15.272-0.265-25.081c0.372-6.184,0.756-12.578,0.786-19.471
		c0.234-53.233-22.303-105.599-60.752-142.25l-17.694,7.807l8.734-15.822c-2.212-1.856-4.332-3.563-6.383-5.209
		c-3.639-2.921-35.397-32.714-52.631-31.857l0,0c-32.399,1.608-52.646,36.284-37.542,64.992c1.736,3.301,3.705,6.572,5.936,9.784
		c8.722,12.561,19.168,20.946,27.563,27.685c1.896,1.523,3.689,2.962,5.26,4.291c22.939,19.41,37.106,50.134,36.975,80.182
		C258.15,1586.615,257.856,1591.506,257.545,1596.682z"/>
	<rect x="217.729" y="1936.957" style="fill:#082948;" width="2268.415" height="19.413"/>
	<path style="opacity:0.8;fill:#FFFFFF;" d="M2411.328,908.181c-3.654,0.695-7.236,1.591-10.734,2.68
		c-21.123-34.978-59.5-58.366-103.342-58.366c-52.16,0-96.587,33.105-113.421,79.45c-11.916-6.643-25.634-10.443-40.245-10.443
		c-45.721,0-82.784,37.064-82.784,82.785c0,2.711,0.14,5.389,0.395,8.033h407.353C2452.46,976.245,2431.46,942.425,2411.328,908.181
		z"/>
	<g>
		<path style="fill:#74BDC1;" d="M2201.057,665.752h-45.6v-37.019h-37.02v-45.6h37.02v-37.018h45.6v37.018h37.02v45.6h-37.02
			V665.752z M2161.576,659.632h33.361v-37.018h37.02v-33.36h-37.02v-37.019h-33.361v37.019h-37.019v33.36h37.019V659.632z"/>
	</g>
	<g>
		<path style="fill:#74BDC1;" d="M2385.905,1277.248h-29.8v-24.192h-24.192v-29.801h24.192v-24.192h29.8v24.192h24.193v29.801
			h-24.193V1277.248z M2360.104,1273.248h21.802v-24.191h24.193v-21.802h-24.193v-24.192h-21.802v24.192h-24.192v21.802h24.192
			V1273.248z"/>
	</g>
	<g>
		<path style="fill:#74BDC1;" d="M550.605,977.392h-23.673v-19.218h-19.218V934.5h19.218v-19.218h23.673V934.5h19.219v23.673
			h-19.219V977.392z M530.109,974.215h17.319v-19.218h19.218v-17.319h-19.218v-19.219h-17.319v19.219h-19.218v17.319h19.218V974.215
			z"/>
	</g>
	<g>
		<path style="fill:#74BDC1;" d="M487.067,1430.527h-15.706v-12.751H458.61v-15.706h12.751v-12.751h15.706v12.751h12.751v15.706
			h-12.751V1430.527z M473.469,1428.42h11.49v-12.751h12.751v-11.49h-12.751v-12.751h-11.49v12.751h-12.751v11.49h12.751V1428.42z"
			/>
	</g>
	<g>
		<path style="fill:#74BDC1;" d="M1609.466,356.238h-23.673V337.02h-19.219v-23.673h19.219v-19.218h23.673v19.218h19.219v23.673
			h-19.219V356.238z M1588.97,353.061h17.319v-19.218h19.219v-17.319h-19.219v-19.218h-17.319v19.218h-19.218v17.319h19.218V353.061
			z"/>
	</g>
	<g>
		<g>
			<path style="fill:#9CDEDC;" d="M2117.649,1112.546c-11.052,0-20.043-8.991-20.043-20.043s8.991-20.043,20.043-20.043
				s20.043,8.991,20.043,20.043S2128.701,1112.546,2117.649,1112.546z M2117.649,1077.544c-8.249,0-14.96,6.71-14.96,14.959
				s6.711,14.959,14.96,14.959s14.959-6.71,14.959-14.959S2125.898,1077.544,2117.649,1077.544z"/>
		</g>
	</g>
	<g>
		<g>
			<path style="fill:#9CDEDC;" d="M1908.58,210.215c-11.052,0-20.044-8.991-20.044-20.043c0-11.052,8.992-20.044,20.044-20.044
				s20.043,8.991,20.043,20.044C1928.623,201.224,1919.632,210.215,1908.58,210.215z M1908.58,175.212
				c-8.249,0-14.96,6.71-14.96,14.96c0,8.248,6.711,14.959,14.96,14.959c8.248,0,14.959-6.711,14.959-14.959
				C1923.539,181.923,1916.828,175.212,1908.58,175.212z"/>
		</g>
	</g>
	<g>
		<g>
			<path style="fill:#8FD0D6;" d="M1207.75,567.776c-10.758,0-19.511-8.753-19.511-19.511s8.752-19.511,19.511-19.511
				s19.511,8.752,19.511,19.511S1218.508,567.776,1207.75,567.776z M1207.75,533.704c-8.03,0-14.562,6.532-14.562,14.562
				c0,8.03,6.532,14.562,14.562,14.562c8.029,0,14.562-6.532,14.562-14.562C1222.312,540.236,1215.779,533.704,1207.75,533.704z"/>
		</g>
	</g>
	<g>
		<path style="fill:#74BDC1;" d="M308.468,1351.755c-12.586,0-22.826-10.239-22.826-22.826s10.24-22.826,22.826-22.826
			c12.586,0,22.826,10.239,22.826,22.826S321.054,1351.755,308.468,1351.755z M308.468,1311.893
			c-9.394,0-17.036,7.643-17.036,17.036c0,9.395,7.643,17.036,17.036,17.036c9.394,0,17.037-7.642,17.037-17.036
			C325.504,1319.535,317.862,1311.893,308.468,1311.893z"/>
	</g>
	<g>
		<path style="fill:#FFFFFF;" d="M1934.887,1936.957l57.154-0.167c1.767-0.005,3.194-1.44,3.189-3.207l0,0
			c-0.006-1.767-1.441-3.194-3.208-3.188l-57.154,0.166c-1.766,0.005-3.193,1.441-3.188,3.207l0,0
			C1931.686,1935.534,1933.121,1936.962,1934.887,1936.957z"/>
		<path style="fill:#333333;" d="M1992.255,1910.964l2.157,17.781c0.267,2.192-0.955,4.188-2.566,4.192l-56.001,0.163
			c-1.455,0.004-2.896-0.899-3.665-2.604c-0.788-1.748-0.952-4.384,1.544-7.935c4.941-7.029,21.124-8.842,29.25-14.766
			c0.166-0.121,0.361-0.188,0.567-0.188l25.771-0.075C1990.768,1907.529,1992.015,1908.981,1992.255,1910.964z"/>
		<g>
			<path style="fill:#FFFFFF;" d="M1967.216,1917.926L1967.216,1917.926c0.403-0.25,0.55-0.932,0.313-1.45
				c-1.106-2.434-4.561-8.356-11.55-7.118c-0.404,0.072-0.677,0.609-0.606,1.163l0.003,0.018c0.068,0.535,0.433,0.885,0.824,0.817
				c6.264-1.088,9.201,4.134,10.097,6.174C1966.487,1917.964,1966.88,1918.134,1967.216,1917.926z"/>
		</g>
		<g>
			<path style="fill:#FFFFFF;" d="M1961.406,1920.232L1961.406,1920.232c0.404-0.25,0.55-0.932,0.314-1.45
				c-1.107-2.434-4.562-8.357-11.551-7.118c-0.404,0.072-0.676,0.609-0.605,1.162l0.002,0.019c0.068,0.535,0.434,0.885,0.824,0.817
				c6.264-1.088,9.201,4.133,10.097,6.174C1960.679,1920.271,1961.07,1920.44,1961.406,1920.232z"/>
		</g>
		<g>
			<path style="fill:#FFFFFF;" d="M1956.003,1922.385L1956.003,1922.385c0.404-0.25,0.55-0.933,0.314-1.45
				c-1.106-2.434-4.562-8.357-11.551-7.118c-0.403,0.071-0.676,0.608-0.605,1.162l0.002,0.018c0.068,0.536,0.434,0.886,0.824,0.817
				c6.264-1.087,9.201,4.134,10.097,6.174C1955.275,1922.423,1955.667,1922.593,1956.003,1922.385z"/>
		</g>
	</g>
	<g>
		<path style="fill:#122F5B;" d="M875.09,1369.532l-42.226-38.518c-1.305-1.19-1.398-3.213-0.208-4.519l0,0
			c1.19-1.305,3.213-1.397,4.518-0.207l42.227,38.518c1.305,1.19,1.397,3.213,0.207,4.518l0,0
			C878.418,1370.63,876.395,1370.723,875.09,1369.532z"/>
		<path style="fill:#55769F;" d="M850.055,1311.74l-13.543,11.723c-1.67,1.445-2.105,3.744-0.915,4.829l41.375,37.741
			c1.074,0.979,2.748,1.278,4.463,0.532c1.758-0.766,3.651-2.607,4.187-6.915c1.061-8.526-9.708-20.739-11.748-30.587
			c-0.042-0.202-0.143-0.382-0.294-0.521l-19.039-17.367C853.464,1310.194,851.565,1310.434,850.055,1311.74z"/>
		<g>
			<path style="fill:#FFFFFF;" d="M863.926,1333.718L863.926,1333.718c-0.131-0.456,0.219-1.06,0.742-1.285
				c2.455-1.06,8.993-3.127,13.338,2.486c0.251,0.324,0.092,0.905-0.332,1.268l-0.014,0.012c-0.41,0.352-0.916,0.365-1.16,0.053
				c-3.91-5.014-9.593-3.12-11.626-2.21C864.44,1334.235,864.036,1334.098,863.926,1333.718z"/>
		</g>
		<g>
			<path style="fill:#FFFFFF;" d="M866.68,1339.329L866.68,1339.329c-0.131-0.456,0.219-1.06,0.742-1.285
				c2.455-1.06,8.993-3.127,13.338,2.486c0.251,0.324,0.092,0.905-0.332,1.268l-0.014,0.012c-0.41,0.351-0.916,0.365-1.16,0.052
				c-3.909-5.014-9.593-3.119-11.627-2.209C867.194,1339.847,866.79,1339.709,866.68,1339.329z"/>
		</g>
		<g>
			<path style="fill:#FFFFFF;" d="M869.237,1344.553L869.237,1344.553c-0.131-0.456,0.219-1.06,0.742-1.285
				c2.454-1.06,8.992-3.127,13.337,2.486c0.251,0.324,0.092,0.905-0.332,1.268l-0.014,0.012c-0.41,0.352-0.916,0.365-1.16,0.053
				c-3.909-5.014-9.593-3.12-11.626-2.21C869.751,1345.07,869.346,1344.933,869.237,1344.553z"/>
		</g>
	</g>
</g>
</svg>
